<?xml version="1.0" encoding="utf-8"?>
<!-- Generator: Adobe Illustrator 15.0.0, SVG Export Plug-In . SVG Version: 6.00 Build 0)  -->
<!DOCTYPE svg PUBLIC "-//W3C//DTD SVG 1.1//EN" "http://www.w3.org/Graphics/SVG/1.1/DTD/svg11.dtd">
<svg version="1.1" id="Layer_1" xmlns="http://www.w3.org/2000/svg" xmlns:xlink="http://www.w3.org/1999/xlink" x="0px" y="0px"
	 width="252px" height="144px" viewBox="0 0 252 144" enable-background="new 0 0 252 144" xml:space="preserve">
<g>
	<path fill="#141006" d="M9.473,118.638h8.048V87.028H9.473V118.638z M31.214,96.274c-7.469,0-12.05,4.626-12.05,11.604
		c0,7.114,5.069,11.252,11.609,11.252h0.041c6.092,0,11.784-3.692,11.784-11.649C42.599,100.9,38.061,96.274,31.214,96.274z
		 M30.994,113.482h-0.045c-2.447,0-3.513-2.486-3.513-5.778c0-2.894,0.891-5.781,3.559-5.781c2.354,0,3.333,2.759,3.333,5.781
		C34.328,111.215,33.171,113.482,30.994,113.482z M51.356,100.721h-0.177l-0.311-3.956h-6.849c0.134,1.825,0.177,3.913,0.177,7.378
		v14.495h8.049v-10.8c0-0.536,0.045-1.027,0.088-1.382c0.445-1.774,2.047-2.756,4.404-2.756c0.843,0,1.466,0.086,2.045,0.225V96.41
		c-0.579-0.136-0.888-0.136-1.602-0.136C55.269,96.274,52.51,97.385,51.356,100.721z M70.812,96.274
		c-8.051,0-11.341,6.582-11.341,11.649c0,6.938,4.361,11.159,12.05,11.159c2.713,0,5.556-0.352,8.185-1.377l-1.027-5.333
		c-1.952,0.623-3.913,0.843-5.956,0.843c-2.845,0-5.378-0.977-5.646-2.71h13.516c0.132-0.537,0.313-1.736,0.313-3.024
		C80.905,101.478,77.88,96.274,70.812,96.274z M66.985,105.079c0.134-1.379,1.07-3.559,3.424-3.559c2.534,0,3.113,2.313,3.113,3.559
		H66.985z M108.736,96.274c-1.465,0-2.756,0.313-3.865,0.893c-1.159,0.623-2.179,1.466-3.026,2.62h-0.089
		c-0.934-2.225-3.111-3.513-5.913-3.513c-3.779,0-5.692,2.138-6.492,3.247h-0.18l-0.311-2.757h-6.712
		c0.088,2.045,0.177,4.533,0.177,7.469v14.404h7.78v-12.49c0-0.536,0.045-1.113,0.225-1.644c0.309-0.718,1.02-1.783,2.44-1.783
		c1.827,0,2.581,1.6,2.581,4.049v11.868h7.78V106.19c0-0.488,0.045-1.156,0.225-1.6c0.354-1.068,1.154-1.87,2.445-1.87
		c1.777,0,2.579,1.559,2.579,4.27v11.647h7.78V105.79C116.162,99.698,113.446,96.274,108.736,96.274z M129.666,117.466l-1.12-0.159
		c-1.92-0.267-2.027-0.8-2.027-4.643v-9.605c0-2.188,0.106-4.746,0.211-6.614c-0.052-0.214-0.264-0.32-0.534-0.32
		c-1.225,0.802-4.265,2.188-5.495,2.615c-0.266,0.159-0.266,0.745-0.052,0.959l0.482,0.318c1.438,0.963,1.438,1.229,1.438,3.311
		v9.337c0,3.843-0.055,4.376-2.027,4.643l-1.121,0.159c-0.375,0.268-0.268,1.172,0.104,1.333c1.498-0.104,3.097-0.161,5.018-0.161
		c1.865,0,3.416,0.057,5.019,0.161C129.935,118.638,130.039,117.733,129.666,117.466z M124.169,90.896
		c1.498,0,2.829-0.854,2.829-2.772c0-1.497-1.07-2.776-2.666-2.776c-1.604,0-2.884,1.118-2.884,2.879
		C121.449,89.668,122.515,90.896,124.169,90.896z M144.711,96.874c-3.413,0-6.776,2.186-7.467,2.506
		c-0.375,0-0.481-0.32-0.481-0.695c0-0.69,0.106-1.495,0.213-2.454c-0.106-0.264-0.32-0.372-0.638-0.372
		c-1.389,1.016-3.897,2.295-5.283,2.881c-0.269,0.159-0.269,0.745-0.053,0.959l0.479,0.318c1.44,0.963,1.44,1.229,1.44,3.311v22.945
		c0,3.838-0.057,4.375-2.028,4.638l-1.118,0.162c-0.378,0.268-0.271,1.175,0.102,1.334c1.495-0.107,3.093-0.159,5.018-0.159
		c1.868,0,3.413,0.052,5.977,0.159c0.372-0.159,0.481-1.066,0.108-1.334l-2.083-0.267c-1.921-0.268-2.027-0.745-2.027-4.533v-5.605
		c0-1.118,0.269-1.389,0.745-1.493c0.482,0.104,1.975,0.214,2.937,0.214c7.575,0,13.02-5.335,13.02-12.754
		C153.57,101.246,150.099,96.874,144.711,96.874z M142.31,117.627c-1.118,0-2.771-0.375-3.839-1.175
		c-1.069-0.854-1.602-1.495-1.602-3.202v-9.175c0-1.759,0.157-2.562,0.641-3.147c0.587-0.641,2.238-1.495,4.533-1.495
		c4.802,0,7.203,4.324,7.203,8.589C149.246,113.573,146.688,117.627,142.31,117.627z M162.957,106.102
		c-1.867-1.067-4.107-2.242-4.107-4.429c0-1.92,1.336-3.254,3.417-3.254c2.19,0,3.788,1.55,4.694,3.897
		c0.267,0.32,1.068,0.209,1.279-0.164c0-1.44-0.37-3.147-0.85-4.322c-0.484-0.425-2.454-0.956-4.697-0.956
		c-4.056,0-7.257,2.186-7.257,6.08c0,2.932,2.186,4.802,5.285,6.565c1.972,1.12,4.105,2.449,4.105,4.905
		c0,2.295-1.654,3.416-3.576,3.416c-3.04,0-4.747-2.563-5.656-5.495c-0.268-0.32-0.958-0.268-1.225,0.053
		c-0.106,1.761,0.214,4.374,0.639,5.392c1.334,1.063,3.202,1.598,5.713,1.598c3.944,0,7.683-2.026,7.683-6.083
		C168.404,109.52,165.786,107.704,162.957,106.102z M231.467,117.307c-1.922-0.267-2.026-0.8-2.026-4.643v-9.176
		c0-3.684-2.082-6.614-6.347-6.614c-2.509,0-5.122,1.225-7.26,2.72c-0.484,0.318-0.853,0.534-1.329,0.423
		c-1.5-2.187-2.991-3.143-5.658-3.143c-2.565,0-5.072,1.279-7.097,2.72c-0.373,0-0.586-0.271-0.586-0.589
		c0-0.479,0-1.281,0.106-2.508c-0.106-0.267-0.375-0.373-0.591-0.373c-1.065,0.802-4.108,2.188-5.333,2.615
		c-0.264,0.159-0.264,0.745-0.055,0.959l0.479,0.318c1.44,0.963,1.44,1.229,1.44,3.311v9.337c0,3.843-0.05,4.376-2.028,4.643
		l-1.098,0.136c0.065-0.389-0.03-0.872-0.232-1.043c-0.75,0.159-1.438,0.269-2.081,0.269c-1.493,0-1.654-1.603-1.654-5.817v-8.964
		c0-1.975,0.053-3.627,0.161-4.641c-0.052-0.213-0.214-0.32-0.481-0.372c-1.175,0.531-4.108,0.906-6.242,0.956
		c-0.427,0.214-0.427,0.962-0.055,1.175l0.693,0.269c1.602,0.639,1.977,0.743,1.977,4.215v8.751c0,1.654-0.375,2.452-1.07,3.093
		c-1.175,1.016-2.883,1.6-4.321,1.6c-4.054,0-4.961-2.452-4.961-6.131v-8.914c0-2.613,0.055-3.733,0.159-4.641
		c-0.052-0.213-0.214-0.32-0.534-0.372c-1.17,0.423-3.254,0.906-5.705,0.956c-0.375,0.164-0.43,0.909-0.109,1.175l0.641,0.269
		c1.603,0.695,1.603,1.175,1.603,4.535v8.91c0,4.321,1.759,6.669,6.453,6.669c3.149,0,5.763-1.761,7.364-2.776
		c0.32,0,0.481,0.268,0.481,0.75v2.188c0.107,0.212,0.375,0.373,0.639,0.373c1.781-0.995,4.79-1.527,6.869-1.95
		c-0.024,0.344,0.103,0.729,0.334,0.827c1.652-0.104,3.257-0.161,5.177-0.161c1.865,0,3.413,0.057,4.854,0.161
		c0.375-0.161,0.483-1.065,0.106-1.333l-0.961-0.159c-1.918-0.32-2.024-0.8-2.024-4.643v-8.269c0-1.711,0.264-2.402,0.797-3.041
		c0.803-0.966,2.293-1.922,4.483-1.922c3.307,0,4.911,1.922,4.911,5.494v7.737c0,3.843-0.058,4.322-2.029,4.643l-0.959,0.159
		c-0.377,0.268-0.266,1.172,0.102,1.333c1.496-0.104,2.934-0.161,4.854-0.161c1.87,0,3.417,0.057,5.017,0.161
		c0.377-0.161,0.484-1.065,0.111-1.333l-1.122-0.159c-1.92-0.267-2.027-0.8-2.027-4.643v-8.16c0-1.867,0.161-2.403,0.8-3.206
		c0.748-0.959,2.399-1.865,4.427-1.865c3.363,0,4.963,1.865,4.963,5.494v7.737c0,3.843-0.053,4.322-2.027,4.643l-0.963,0.159
		c-0.373,0.268-0.264,1.172,0.108,1.333c1.495-0.104,2.938-0.161,4.858-0.161c1.87,0,3.415,0.057,5.174,0.161
		c0.373-0.161,0.479-1.065,0.109-1.333L231.467,117.307z M243.013,96.556l-1.831,4.872l-1.83-4.872h-1.054v5.797h0.733V97.53h0.019
		l1.804,4.822h0.657l1.807-4.822h0.016v4.822h0.734v-5.797H243.013z M236.762,99.575c-0.178-0.12-0.375-0.22-0.6-0.297
		c-0.217-0.068-0.443-0.135-0.671-0.187c-0.231-0.055-0.457-0.104-0.68-0.152c-0.225-0.043-0.42-0.104-0.598-0.173
		c-0.175-0.072-0.315-0.161-0.422-0.271c-0.103-0.113-0.157-0.257-0.157-0.437c0-0.186,0.034-0.345,0.111-0.475
		c0.073-0.127,0.171-0.228,0.291-0.305c0.123-0.072,0.264-0.125,0.418-0.161c0.154-0.031,0.316-0.048,0.481-0.048
		c0.396,0,0.729,0.096,0.986,0.28c0.257,0.186,0.402,0.488,0.448,0.906h0.731c-0.014-0.32-0.073-0.596-0.185-0.825
		c-0.108-0.229-0.261-0.42-0.454-0.572c-0.19-0.152-0.413-0.264-0.67-0.334c-0.255-0.073-0.53-0.106-0.827-0.106
		c-0.264,0-0.525,0.033-0.771,0.102c-0.257,0.068-0.478,0.171-0.675,0.307c-0.202,0.139-0.361,0.312-0.479,0.527
		c-0.116,0.214-0.178,0.469-0.178,0.759c0,0.264,0.055,0.486,0.159,0.661c0.104,0.176,0.248,0.318,0.423,0.43
		c0.175,0.109,0.373,0.202,0.593,0.266c0.226,0.071,0.452,0.128,0.68,0.178c0.231,0.055,0.452,0.103,0.68,0.152
		c0.22,0.05,0.416,0.111,0.591,0.193c0.175,0.074,0.317,0.179,0.427,0.302c0.101,0.123,0.157,0.284,0.157,0.486
		c0,0.211-0.046,0.384-0.132,0.519c-0.087,0.136-0.2,0.242-0.341,0.32c-0.142,0.079-0.3,0.134-0.476,0.168
		c-0.172,0.031-0.348,0.048-0.522,0.048c-0.216,0-0.427-0.027-0.632-0.082c-0.204-0.053-0.384-0.139-0.538-0.255
		c-0.154-0.111-0.279-0.254-0.373-0.429c-0.095-0.178-0.143-0.387-0.143-0.63h-0.734c0,0.353,0.066,0.656,0.191,0.911
		c0.129,0.259,0.3,0.468,0.52,0.634c0.219,0.166,0.473,0.289,0.764,0.371c0.289,0.081,0.598,0.125,0.918,0.125
		c0.267,0,0.532-0.034,0.803-0.096c0.266-0.062,0.509-0.164,0.725-0.3c0.216-0.139,0.391-0.318,0.531-0.534
		c0.137-0.221,0.207-0.481,0.207-0.791c0-0.286-0.052-0.524-0.156-0.716C237.075,99.857,236.937,99.703,236.762,99.575z"/>
	<g>
		<path d="M184.597,60.576c0,0-7.855-0.672-11.823-0.672c-4.081,0-7.482,0.113-10.884,0.338c-0.798-0.338-1.021-2.266-0.228-2.833
			l2.608-0.338c4.192-0.568,4.309-1.7,4.309-9.864V19.391c-3.117,1.986-6.119,4.372-8.914,7.165
			c-15.804,15.804-18.905,38.327-6.926,50.3c8.428,8.428,22.065,9.384,34.916,3.713V67.6
			C187.655,63.18,187.146,61.003,184.597,60.576z"/>
		<path d="M209.965,19.632c-8.006-8.01-20.726-9.269-32.999-4.508v32.083c0,8.165,0.387,9.546,4.309,9.864
			c0,0,11.647-3.179,14.091-4.774c0.567,0,1.022,0.228,1.136,0.682c-0.228,3.965-0.457,9.41-0.457,14.059v8.778
			c2.432-1.711,4.783-3.667,6.999-5.881C218.845,54.125,221.944,31.607,209.965,19.632z"/>
		<path fill="#00AEEF" d="M191.057,41.185c-3.516,0-5.78-2.606-5.78-5.667c0-3.743,2.72-6.122,6.123-6.122
			c3.399,0,5.667,2.717,5.667,5.894C197.066,39.371,194.233,41.185,191.057,41.185z"/>
	</g>
</g>
</svg>
